<svg viewBox="0 0 330 200" xmlns="http://www.w3.org/2000/svg"><g><g><g><g><line x1="10" y1="0" x2="10" y2="178" fill="rgb(0, 0, 0)" stroke="rgb(204, 204, 204)" stroke-width="1px"></line></g></g><g transform="translate(10, 0)" clip-path="url(#clip_0)"><clipPath id="clip_0"><rect width="320" height="178"></rect></clipPath><g><g><g><line x1="0" y1="0" x2="0" y2="178" fill="rgb(0, 0, 0)" stroke="rgb(60, 60, 60)" stroke-width="1px" opacity="0.25"></line><line x1="29.090909090909093" y1="0" x2="29.090909090909093" y2="178" fill="rgb(0, 0, 0)" stroke="rgb(60, 60, 60)" stroke-width="1px" opacity="0.25"></line><line x1="58.18181818181819" y1="0" x2="58.18181818181819" y2="178" fill="rgb(0, 0, 0)" stroke="rgb(60, 60, 60)" stroke-width="1px" opacity="0.25"></line><line x1="87.27272727272727" y1="0" x2="87.27272727272727" y2="178" fill="rgb(0, 0, 0)" stroke="rgb(60, 60, 60)" stroke-width="1px" opacity="0.25"></line><line x1="116.36363636363637" y1="0" x2="116.36363636363637" y2="178" fill="rgb(0, 0, 0)" stroke="rgb(60, 60, 60)" stroke-width="1px" opacity="0.25"></line><line x1="145.45454545454544" y1="0" x2="145.45454545454544" y2="178" fill="rgb(0, 0, 0)" stroke="rgb(60, 60, 60)" stroke-width="1px" opacity="0.25"></line><line x1="174.54545454545453" y1="0" x2="174.54545454545453" y2="178" fill="rgb(0, 0, 0)" stroke="rgb(60, 60, 60)" stroke-width="1px" opacity="0.25"></line><line x1="203.63636363636363" y1="0" x2="203.63636363636363" y2="178" fill="rgb(0, 0, 0)" stroke="rgb(60, 60, 60)" stroke-width="1px" opacity="0.25"></line><line x1="232.72727272727275" y1="0" x2="232.72727272727275" y2="178" fill="rgb(0, 0, 0)" stroke="rgb(60, 60, 60)" stroke-width="1px" opacity="0.25"></line><line x1="261.8181818181818" y1="0" x2="261.8181818181818" y2="178" fill="rgb(0, 0, 0)" stroke="rgb(60, 60, 60)" stroke-width="1px" opacity="0.25"></line><line x1="290.9090909090909" y1="0" x2="290.9090909090909" y2="178" fill="rgb(0, 0, 0)" stroke="rgb(60, 60, 60)" stroke-width="1px" opacity="0.25"></line><line x1="320" y1="0" x2="320" y2="178" fill="rgb(0, 0, 0)" stroke="rgb(60, 60, 60)" stroke-width="1px" opacity="0.25"></line></g></g></g><g><g><line x1="29.090909090909093" y1="0" x2="29.090909090909093" y2="178" fill="rgb(0, 0, 0)" stroke="rgb(153, 153, 153)" stroke-width="1.5px"></line></g></g><g><g><g><g><g><path stroke="rgb(255, 112, 67)" stroke-width="2px" d="M29.090909090909093,24.780598713449113L30.545454545454547,24.82501104316013L32,24.874485207519033L33.45454545454545,24.921497811570287L34.90909090909091,24.98569852646274L36.36363636363636,25.050601029767584L37.81818181818182,25.116821441179727L39.27272727272727,25.1813731870342L40.72727272727272,25.254283656034428L42.18181818181818,25.329604453291942L43.63636363636363,25.412533521082135L45.090909090909086,25.503307290292227L46.54545454545455,25.602055882456728L48,25.711803783114455L49.45454545454545,25.834451505542162L50.90909090909091,25.97710228167215L52.36363636363636,26.153107127621553L53.81818181818182,26.37387413511209L55.27272727272727,26.658440150202733L56.72727272727273,27.054290731918947L58.18181818181819,27.623993905145998L59.63636363636364,28.607915023997943L61.09090909090909,30.03448932124515L62.54545454545455,31.481993936244L64,32.93392898824402L65.45454545454545,34.36212211119746L66.9090909090909,35.742806193128835L68.36363636363636,37.05205542921475L69.81818181818181,38.30126319271376L71.27272727272727,39.46518324893808L72.72727272727272,40.55732459879537L74.18181818181819,41.59805843744415L75.63636363636364,42.60915546637086L77.0909090909091,43.5896593166693L78.54545454545455,44.544866980095925L80,45.45452124236098L81.45454545454544,46.35005715412515L82.9090909090909,47.23074138153145L84.36363636363636,48.099060808413284L85.81818181818181,48.959544086803255L87.27272727272727,49.800302042201714L88.72727272727273,50.62560482392962L90.18181818181817,51.43520751774542L91.63636363636364,52.27618927843208L93.0909090909091,53.03964678784007L94.54545454545455,53.80709507174442L96,54.6036464451537L97.45454545454547,55.389129795740615L98.9090909090909,56.1528370643293L100.36363636363637,57.014929176481246L101.81818181818181,57.847879206687786L103.27272727272728,58.70664163271546L104.72727272727272,59.572915658201026L106.18181818181819,60.4173834282953L107.63636363636364,61.25098128931377L109.09090909090908,62.05407039186318L110.54545454545455,62.826009079943276L112,63.548674797062255L113.45454545454545,64.25486594304179L114.9090909090909,64.96537728807435L116.36363636363637,65.71701441413288L117.81818181818181,66.46224908625827L119.27272727272728,67.17389995153759L120.72727272727272,67.8967404054918L122.18181818181819,68.64144136769116L123.63636363636363,69.47972994182737L125.0909090909091,70.29172633882776L126.54545454545455,71.09591448740835L128,71.88334346808324L129.45454545454544,72.6690083131418L130.9090909090909,73.4328869265575L132.36363636363637,74.19181416692393L133.8181818181818,74.95351070066648L135.27272727272728,75.71105959453415L136.72727272727272,76.46893442456167L138.1818181818182,77.20044088728417L139.63636363636363,77.9063724810036L141.0909090909091,78.61381011898226L142.54545454545453,79.31629857432392L144,80.03632355419286L145.45454545454544,80.77042250436313L146.9090909090909,81.51049378799594L148.36363636363637,82.26321383623352L149.8181818181818,83.02690924062047L151.27272727272728,83.77984600878865L152.72727272727275,84.52891748618254L154.1818181818182,85.26077403134549L155.63636363636365,86.02306579368236L157.0909090909091,86.7721690927864L158.54545454545456,87.50109943904486L160,88.22314910154931L161.45454545454544,88.9231176930901L162.90909090909088,89.61794926645845L164.36363636363637,90.31543313254527L165.8181818181818,91.01460077733877L167.27272727272725,91.72960611307181L168.72727272727272,92.44579424940672L170.1818181818182,93.15978095877946L171.63636363636363,93.8694205445085L173.0909090909091,94.56449146419236L174.54545454545453,95.25918893698979L176,95.95660554747623L177.45454545454547,96.66165585638161L178.9090909090909,97.3863172640467L180.36363636363635,98.11159950459069L181.81818181818184,98.83432387452088L183.27272727272728,99.55838272892949L184.72727272727272,100.27738221884677L186.1818181818182,100.99613023241724L187.63636363636363,101.71767507576834L189.0909090909091,102.44099549134909L190.54545454545456,103.17135200718988L192,103.81164295127613L193.45454545454544,104.56616787227625L194.90909090909093,105.29563690225628L196.36363636363637,106.02103889074978L197.8181818181818,106.74091053175755L199.27272727272725,107.46614064637397L200.72727272727275,108.188862108413L202.1818181818182,108.90999538558722L203.63636363636363,109.59467319511693L205.09090909090907,110.27101106857657L206.54545454545456,110.94797191648092L208,111.61351255031435L209.45454545454544,112.28658625405235L210.9090909090909,112.97034679437584L212.36363636363637,113.66383944170914L213.8181818181818,114.36350455925206L215.27272727272728,115.06413088310319L216.72727272727272,115.76832329077335L218.18181818181816,116.47182439145539L219.63636363636365,117.16307136280241L221.0909090909091,117.84359662504662L222.54545454545453,118.43755312046443L224,119.0238986479189L225.45454545454547,119.62314786471686L226.9090909090909,120.24239830441394L228.36363636363637,120.89796870275178L229.8181818181818,121.57656843562235L231.27272727272728,122.29636347264234L232.72727272727275,123.02455099750902L234.1818181818182,123.90579955712982L235.63636363636363,124.79545170609725L237.09090909090912,125.79680907433853L238.54545454545456,126.66806416751228L240,127.48933889613568L241.45454545454544,128.32325186909426L242.90909090909088,129.08539733284962L244.36363636363637,129.84932304810144L245.8181818181818,130.6291550891919L247.27272727272725,131.3983895619841L248.72727272727272,132.1609076404953L250.1818181818182,132.89552935606739L251.63636363636363,133.61542182715388L253.0909090909091,134.32302290087821L254.54545454545453,135.01987811269666L256,135.70992245160085L257.45454545454544,136.4104267672266L258.9090909090909,137.12052031430719L260.3636363636364,137.84260637618198L261.8181818181818,138.57525352030743L263.27272727272725,139.31164366404877L264.72727272727275,140.02085596284147L266.1818181818182,140.69510712609468L267.6363636363636,141.35014980538264L269.0909090909091,141.9989267593104L270.54545454545456,142.65555477659396L272,143.3289842598446L273.45454545454544,144.00420171712847L274.90909090909093,144.67168829804507L276.3636363636364,145.33427538108478L277.8181818181818,146.00558030168267L279.27272727272725,146.6824144889097L280.72727272727275,147.36571197894617L282.1818181818182,148.0708431865665L283.6363636363636,148.78686390217652L285.09090909090907,149.50092399688333L286.54545454545456,150.21669902134548L288,150.93651937319447L289.45454545454544,151.6618626159669L290.9090909090909,152.40253297721452L292.3636363636364,153.15292345632747L293.8181818181818,153.89174413050205L295.27272727272725,154.6202759285494L296.72727272727275,155.3481985747088L298.1818181818182,156.07278146380452L299.6363636363636,156.78046950944884L301.0909090909091,157.47449221959639L302.54545454545456,158.18054502680653L304,158.8794472335491L305.4545454545455,159.5885982757345" style="fill: none;" fill="none"></path></g></g></g></g><g opacity="0.2"><g><g><g><path stroke="rgb(255, 112, 67)" stroke-width="2px" d="M29.090909090909093,24.780598713449113L30.545454545454547,24.853168472747132L32,24.925738296690728L33.45454545454545,24.98218153776662L34.90909090909091,25.078941470243215L36.36363636363636,25.15151149493593L37.81818181818182,25.224081584274245L39.27272727272727,25.288588384497814L40.72727272727272,25.37728531804004L42.18181818181818,25.457918977686795L43.63636363636363,25.55467947429022L45.090909090909086,25.65950347525201L46.54545454545455,25.772391011445514L48,25.901405529830814L49.45454545454545,26.04654710679401L50.90909090909091,26.22394271814933L52.36363636363636,26.45778297683916L53.81818181818182,26.756131866120885L55.27272727272727,27.1512442361384L56.72727272727273,27.73988458093955L58.18181818181819,28.610757537035738L59.63636363636364,30.312212075555326L61.09090909090909,32.50560866261828L62.54545454545455,33.98941037578649L64,35.4490459961066L65.45454545454545,36.836127245528715L66.9090909090909,38.13452117620535L68.36363636363636,39.320029330758395L69.81818181818181,40.4652304340729L71.27272727272727,41.48140825199002L72.72727272727272,42.449208415472754L74.18181818181819,43.400889769935205L75.63636363636364,44.360647461771705L77.0909090909091,45.28815511709534L78.54545454545455,46.19954247423147L80,47.0302849510759L81.45454545454544,47.90136381650781L82.9090909090909,48.7563206342633L84.36363636363636,49.60322065340641L85.81818181818181,50.45012946275288L87.27272727272727,51.25671745367318L88.72727272727273,52.055247418584955L90.18181818181817,52.837653044526114L91.63636363636364,53.732992398385804L93.0909090909091,54.36215565961406L94.54545454545455,55.13651710254068L96,55.9834833451292L97.45454545454547,56.749793711591174L98.9090909090909,57.4757785919558L100.36363636363637,58.50830154796769L101.81818181818181,59.29076905291093L103.27272727272728,60.19424602104426L104.72727272727272,61.07353231883686L106.18181818181819,61.88022532967713L107.63636363636364,62.69499336584719L109.09090909090908,63.445232514749975L110.54545454545455,64.16320977250456L112,64.80052072112002L113.45454545454545,65.47817326577018L114.9090909090909,66.19616841194006L116.36363636363637,67.01904702314141L117.81818181818181,67.75319082762708L119.27272727272728,68.40666504532719L120.72727272727272,69.14888902287245L122.18181818181819,69.93145857201011L123.63636363636363,70.93186768842293L125.0909090909091,71.69831845492037L126.54545454545455,72.48898047369096L128,73.24737777227243L129.45454545454544,74.0299866298312L130.9090909090909,74.75612527273185L132.36363636363637,75.50647532589599L133.8181818181818,76.27296906358042L135.27272727272728,77.02333306554857L136.72727272727272,77.78177250970901L138.1818181818182,78.46760148076143L139.63636363636363,79.12923018653387L141.0909090909091,79.83927671671626L142.54545454545453,80.5331917956106L144,81.28359497569409L145.45454545454544,82.04207402005038L146.9090909090909,82.79249107661018L148.36363636363637,83.56712237392391L149.8181818181818,84.34983021660803L151.27272727272728,85.08412996693971L152.72727272727275,85.82650566285847L154.1818181818182,86.52854106695966L155.63636363636365,87.34355526201593L157.0909090909091,88.06981239387186L158.54545454545456,88.76379747058535L160,89.47392784505954L161.45454545454544,90.1356458018707L162.90909090909088,90.82157861675748L164.36363636363637,91.52365699856823L165.8181818181818,92.22574142126123L167.27272727272725,92.968182095256L168.72727272727272,93.68641917588339L170.1818181818182,94.39659239283321L171.63636363636363,95.0987015357899L173.0909090909091,95.76853542959114L174.54545454545453,96.46258598763048L176,97.16471290782948L177.45454545454547,97.88298692847296L178.9090909090909,98.64162028775154L180.36363636363635,99.36797798608526L181.81818181818184,100.08627140170472L183.27272727272728,100.81264196001393L184.72727272727272,101.5228772026504L186.1818181818182,102.24118958812153L187.63636363636363,102.96757932978667L189.0909090909091,103.69397553789331L190.54545454545456,104.43652056781391L192,104.92079270612709L193.45454545454544,105.8732029626012L194.90909090909093,106.55926808624599L196.36363636363637,107.27762480959267L197.8181818181818,107.98791632706893L199.27272727272725,108.72242883105L200.72727272727275,109.44080459860524L202.1818181818182,110.15918669070055L203.63636363636363,110.78071337910103L205.09090909090907,111.44260414859954L206.54545454545456,112.12064416271728L208,112.76640179521478L209.45454545454544,113.45252487941238L210.9090909090909,114.15479801093588L212.36363636363637,114.86514939629919L213.8181818181818,115.57550696560573L215.27272727272728,116.27779836921452L216.72727272727272,116.98816823683374L218.18181818181816,117.69047179902806L219.63636363636365,118.36049117648352L221.0909090909091,119.02244343421177L222.54545454545453,119.46643881107049L224,120.03960005174392L225.45454545454547,120.66120200440346L226.9090909090909,121.31510007847623L228.36363636363637,122.03358672028916L229.8181818181818,122.75207968881635L231.27272727272728,123.54323656827842L232.72727272727275,124.28596225242319L234.1818181818182,125.4323564702072L235.63636363636363,126.33656608820093L237.09090909090912,127.53142988076932L238.54545454545456,128.17730948612558L240,128.912003752727L241.45454545454544,129.76780981037066L242.90909090909088,130.40563337025L244.36363636363637,131.17264298800305L245.8181818181818,131.98002932216446L247.27272727272725,132.73090578276913L248.72727272727272,133.48178915305775L250.1818181818182,134.16808644938888L251.63636363636363,134.86246370628987L253.0909090909091,135.54877261534273L254.54545454545453,136.22701297318932L256,136.90525896853563L257.45454545454544,137.62388290043924L258.9090909090909,138.35058769461696L260.3636363636364,139.09344817362032L261.8181818181818,139.8443900968529L263.27272727272725,140.58726417577705L264.72727272727275,141.24939677261855L266.1818181818182,141.86308544070448L267.6363636363636,142.48485366670246L269.0909090909091,143.12277664088998L270.54545454545456,143.7930048848537L272,144.49553919492274L273.45454545454544,145.17385392329612L274.90909090909093,145.82794846613203L276.3636363636364,146.4820482522166L277.8181818181818,147.16845490073558L279.27272727272725,147.85486732329267L280.72727272727275,148.54936106281704L282.1818181818182,149.29231439808174L283.6363636363636,150.02719880832646L285.09090909090907,150.7378625550043L286.54545454545456,151.4566083214889L288,152.1834363214295L289.45454545454544,152.91834677064955L290.9090909090909,153.6855680377143L292.3636363636364,154.45279651870305L293.8181818181818,155.17157500903693L295.27272727272725,155.88228356205332L296.72727272727275,156.60915098506666L298.1818181818182,157.3279484709075L299.6363636363636,158.00636988389678L301.0909090909091,158.67672039176927L302.54545454545456,159.40361270825585L304,160.09012806410135L305.4545454545455,160.81703297183495" style="fill: none;" fill="none"></path></g></g></g></g></g></g><g transform="translate(10, 178)" clip-path="url(#clip_1)"><clipPath id="clip_1"><rect width="320" height="22"></rect></clipPath><g><g><line x1="0" y1="0" x2="0" y2="5" style="visibility: inherit;" fill="rgb(0, 0, 0)" stroke="rgb(204, 204, 204)" stroke-width="1px"></line><line x1="29.090909090909093" y1="0" x2="29.090909090909093" y2="5" style="visibility: inherit;" fill="rgb(0, 0, 0)" stroke="rgb(204, 204, 204)" stroke-width="1px"></line><line x1="58.18181818181819" y1="0" x2="58.18181818181819" y2="5" style="visibility: inherit;" fill="rgb(0, 0, 0)" stroke="rgb(204, 204, 204)" stroke-width="1px"></line><line x1="87.27272727272727" y1="0" x2="87.27272727272727" y2="5" style="visibility: inherit;" fill="rgb(0, 0, 0)" stroke="rgb(204, 204, 204)" stroke-width="1px"></line><line x1="116.36363636363637" y1="0" x2="116.36363636363637" y2="5" style="visibility: inherit;" fill="rgb(0, 0, 0)" stroke="rgb(204, 204, 204)" stroke-width="1px"></line><line x1="145.45454545454544" y1="0" x2="145.45454545454544" y2="5" style="visibility: inherit;" fill="rgb(0, 0, 0)" stroke="rgb(204, 204, 204)" stroke-width="1px"></line><line x1="174.54545454545453" y1="0" x2="174.54545454545453" y2="5" style="visibility: inherit;" fill="rgb(0, 0, 0)" stroke="rgb(204, 204, 204)" stroke-width="1px"></line><line x1="203.63636363636363" y1="0" x2="203.63636363636363" y2="5" style="visibility: inherit;" fill="rgb(0, 0, 0)" stroke="rgb(204, 204, 204)" stroke-width="1px"></line><line x1="232.72727272727275" y1="0" x2="232.72727272727275" y2="5" style="visibility: inherit;" fill="rgb(0, 0, 0)" stroke="rgb(204, 204, 204)" stroke-width="1px"></line><line x1="261.8181818181818" y1="0" x2="261.8181818181818" y2="5" style="visibility: inherit;" fill="rgb(0, 0, 0)" stroke="rgb(204, 204, 204)" stroke-width="1px"></line><line x1="290.9090909090909" y1="0" x2="290.9090909090909" y2="5" style="visibility: inherit;" fill="rgb(0, 0, 0)" stroke="rgb(204, 204, 204)" stroke-width="1px"></line><line x1="320" y1="0" x2="320" y2="5" style="visibility: inherit;" fill="rgb(0, 0, 0)" stroke="rgb(204, 204, 204)" stroke-width="1px"></line></g><g transform="translate(0, 8)"><text x="0" y="0" dx="0em" dy="0.95em" style="text-anchor: middle; visibility: hidden; font-family: Roboto, sans-serif; font-size: 12px; font-weight: 200;" fill="rgb(50, 49, 63)" stroke="none" stroke-width="1px">-20</text><text x="29.090909090909093" y="0" dx="0em" dy="0.95em" style="text-anchor: middle; visibility: inherit; font-family: Roboto, sans-serif; font-size: 12px; font-weight: 200;" fill="rgb(50, 49, 63)" stroke="none" stroke-width="1px">0</text><text x="58.18181818181819" y="0" dx="0em" dy="0.95em" style="text-anchor: middle; visibility: inherit; font-family: Roboto, sans-serif; font-size: 12px; font-weight: 200;" fill="rgb(50, 49, 63)" stroke="none" stroke-width="1px">20</text><text x="87.27272727272727" y="0" dx="0em" dy="0.95em" style="text-anchor: middle; visibility: inherit; font-family: Roboto, sans-serif; font-size: 12px; font-weight: 200;" fill="rgb(50, 49, 63)" stroke="none" stroke-width="1px">40</text><text x="116.36363636363637" y="0" dx="0em" dy="0.95em" style="text-anchor: middle; visibility: inherit; font-family: Roboto, sans-serif; font-size: 12px; font-weight: 200;" fill="rgb(50, 49, 63)" stroke="none" stroke-width="1px">60</text><text x="145.45454545454544" y="0" dx="0em" dy="0.95em" style="text-anchor: middle; visibility: inherit; font-family: Roboto, sans-serif; font-size: 12px; font-weight: 200;" fill="rgb(50, 49, 63)" stroke="none" stroke-width="1px">80</text><text x="174.54545454545453" y="0" dx="0em" dy="0.95em" style="text-anchor: middle; visibility: inherit; font-family: Roboto, sans-serif; font-size: 12px; font-weight: 200;" fill="rgb(50, 49, 63)" stroke="none" stroke-width="1px">100</text><text x="203.63636363636363" y="0" dx="0em" dy="0.95em" style="text-anchor: middle; visibility: inherit; font-family: Roboto, sans-serif; font-size: 12px; font-weight: 200;" fill="rgb(50, 49, 63)" stroke="none" stroke-width="1px">120</text><text x="232.72727272727275" y="0" dx="0em" dy="0.95em" style="text-anchor: middle; visibility: inherit; font-family: Roboto, sans-serif; font-size: 12px; font-weight: 200;" fill="rgb(50, 49, 63)" stroke="none" stroke-width="1px">140</text><text x="261.8181818181818" y="0" dx="0em" dy="0.95em" style="text-anchor: middle; visibility: inherit; font-family: Roboto, sans-serif; font-size: 12px; font-weight: 200;" fill="rgb(50, 49, 63)" stroke="none" stroke-width="1px">160</text><text x="290.9090909090909" y="0" dx="0em" dy="0.95em" style="text-anchor: middle; visibility: inherit; font-family: Roboto, sans-serif; font-size: 12px; font-weight: 200;" fill="rgb(50, 49, 63)" stroke="none" stroke-width="1px">180</text><text x="320" y="0" dx="0em" dy="0.95em" style="text-anchor: middle; visibility: hidden; font-family: Roboto, sans-serif; font-size: 12px; font-weight: 200;" fill="rgb(50, 49, 63)" stroke="none" stroke-width="1px">200</text></g><line x1="0" y1="0" x2="320" y2="0" fill="rgb(0, 0, 0)" stroke="rgb(204, 204, 204)" stroke-width="1px"></line></g></g></g></g></svg>